<?xml version="1.0" encoding="UTF-8"?>
<svg xmlns="http://www.w3.org/2000/svg" width="600" height="124" viewBox="0 0 600 124" fill="none">
  <path d="M416.601 8.12352C419.381 4.25616 424.877 3.15244 429.018 5.88644L449.716 19.5527C460.986 26.9985 464.614 44.6056 456.392 56.5385C453.42 60.8524 449.063 64.0278 443.467 66.1399C446.198 74.3357 445.719 81.5968 441.56 87.6331C432.545 100.717 414.638 102.903 400.449 93.5337C394.499 89.6049 386.272 87.8866 375.58 88.5798C374.105 88.6753 371.463 89.0096 367.653 89.5825C374.101 72.1994 382.569 55.8983 393.057 40.679C408.788 17.8502 405.936 22.386 416.601 8.12352Z" fill="black"></path>
  <path d="M422.007 11.8861C411.374 26.1035 403.571 36.8905 398.598 44.247C393.623 51.6053 386.346 63.1378 380.107 76.8864C379.446 78.3426 378.797 79.8237 378.164 81.3273C390.288 80.5414 396.731 82.8578 404.082 87.7115C415.108 94.9921 428.722 93.5548 435.55 83.646C439.054 78.56 438.537 67.416 434.617 63.2052C430.696 58.9944 427.495 57.6812 427.184 57.0939C427.729 56.998 432.083 60.2473 436.99 61.0401C441.897 61.8329 447.467 56.782 450.382 52.5512C456.783 43.2616 453.182 30.0279 445.579 25.0046L424.882 11.3389C423.888 10.6825 422.616 11.0013 422.007 11.8861Z" fill="#FBDE20"></path>
  <mask id="mask0_920_5575" style="mask-type:alpha" maskUnits="userSpaceOnUse" x="378" y="25" width="76" height="68">
    <path d="M427.479 57.3902C428.406 58.107 431.246 59.5855 434.616 63.2054C438.536 67.4162 439.053 78.5602 435.549 83.6462C428.721 93.555 415.107 94.9924 404.081 87.7118C396.73 82.8581 390.287 80.5418 378.163 81.3277L378.305 81.3209C388.411 80.1652 395.808 77.471 402.98 80.094C417.282 85.3242 427.377 81.2098 430.129 76.4265C432.81 71.7657 431.779 66.159 427.735 57.9016L427.479 57.3902ZM446.028 25.3149C453.321 30.5542 456.654 43.4469 450.381 52.5513C447.466 56.7821 441.896 61.8331 436.989 61.0403C432.945 60.3869 429.276 58.0646 427.806 57.3221L427.409 57.2442C437.599 59.413 442.855 54.6135 447.159 48.9447C450.836 44.1004 450.593 31.8115 446.176 25.5196L446.028 25.3149Z" fill="white"></path>
  </mask>
  <g mask="url(#mask0_920_5575)">
    <path d="M427.479 57.3902C428.406 58.107 431.246 59.5855 434.616 63.2054C438.536 67.4162 439.053 78.5602 435.549 83.6462C428.721 93.555 415.107 94.9924 404.081 87.7118C396.73 82.8581 390.287 80.5418 378.163 81.3277L378.305 81.3209C388.411 80.1652 395.808 77.471 402.98 80.094C417.282 85.3242 427.377 81.2098 430.129 76.4265C432.81 71.7657 431.779 66.159 427.735 57.9016L427.479 57.3902ZM446.028 25.3149C453.321 30.5542 456.654 43.4469 450.381 52.5513C447.466 56.7821 441.896 61.8331 436.989 61.0403C432.945 60.3869 429.276 58.0646 427.806 57.3221L427.409 57.2442C437.599 59.413 442.855 54.6135 447.159 48.9447C450.836 44.1004 450.593 31.8115 446.176 25.5196L446.028 25.3149Z" fill="#E6C529"></path>
  </g>
  <path fill-rule="evenodd" clip-rule="evenodd" d="M436.318 46.5146C440.988 45.6261 443.633 39.0224 440.037 32.377C436.442 25.7316 428.905 22.968 423.31 25.4804C417.714 27.9929 417.913 36.4002 421.59 40.8799C425.267 45.3597 431.649 47.4031 436.318 46.5146Z" fill="black"></path>
  <path d="M430.456 36.0624C433.238 35.524 435.011 32.6173 434.416 29.57C433.821 26.5227 431.084 24.4889 428.302 25.0273C425.52 25.5657 423.747 28.4725 424.342 31.5197C424.937 34.567 427.674 36.6009 430.456 36.0624Z" fill="white"></path>
  <path fill-rule="evenodd" clip-rule="evenodd" d="M397.063 44.7277C404.586 48.4537 411.679 52.7415 418.343 57.5911C425.006 62.4407 431.914 69.3139 439.068 78.2108L437.091 83.583C427.49 73.3043 420.129 66.1495 415.009 62.1186C409.889 58.0876 403.016 53.818 394.391 49.3097L397.063 44.7277Z" fill="black"></path>
  <path fill-rule="evenodd" clip-rule="evenodd" d="M390.371 55.6106C397.373 58.5148 404.249 62.3343 410.997 67.0694C417.746 71.8044 424.776 78.5586 432.087 87.3319L428.866 92.147C419.977 82.4273 412.936 75.596 407.745 71.6531C402.554 67.7103 395.606 63.5587 386.902 59.1984L390.371 55.6106Z" fill="black"></path>
  <path fill-rule="evenodd" clip-rule="evenodd" d="M381.851 64.988C387.359 66.7627 393.627 69.8024 400.655 74.1073C407.683 78.4122 415.304 85.1283 423.518 94.2555L419.699 96.4331C411.708 88.5155 404.513 82.6684 398.115 78.8917C391.716 75.115 385.775 72.3241 380.293 70.5188L381.851 64.988Z" fill="black"></path>
  <path d="M356.953 30.9968C345.625 30.9968 343.726 21.5303 343.726 15.5684C343.726 9.60653 345.372 0.140068 360.467 0.140068C370.53 0.140068 380.992 10.4256 391.851 30.9968H356.953Z" fill="black"></path>
  <mask id="mask1_920_5575" style="mask-type:alpha" maskUnits="userSpaceOnUse" x="348" y="4" width="36" height="23">
    <path d="M360.467 4.94624C355.058 4.94624 352.026 6.25173 350.414 8.43485C349.171 10.1184 348.635 12.4872 348.635 15.5692C348.635 18.5366 349.185 21.21 350.311 23.0626C351.559 25.118 353.5 26.1922 356.953 26.1922H371.342H383.56C374.989 11.8516 367.096 4.94624 360.467 4.94624Z" fill="white"></path>
  </mask>
  <g mask="url(#mask1_920_5575)">
    <path d="M360.467 4.94694C355.058 4.94694 352.026 6.25242 350.414 8.43554C349.171 10.1191 348.635 12.4879 348.635 15.5699C348.635 18.5373 349.185 21.2106 350.311 23.0633C351.559 25.1187 353.5 26.1929 356.953 26.1929H371.342H383.56C374.989 11.8523 367.096 4.94694 360.467 4.94694Z" fill="#B8D8D8"></path>
    <path fill-rule="evenodd" clip-rule="evenodd" d="M348.889 36.8335C356.441 36.8335 368.074 36.8335 383.787 36.8335C372.927 16.2623 362.466 5.97672 352.403 5.97672C337.308 5.97672 335.662 15.4432 335.662 21.4051C335.662 27.367 337.561 36.8335 348.889 36.8335Z" fill="white"></path>
  </g>
  <path fill-rule="evenodd" clip-rule="evenodd" d="M2.97224 103.336C2.0577 103.336 1.3337 103.133 0.800219 102.726C0.266737 102.32 0 101.784 0 101.118C0 100.675 0.190526 100.084 0.571585 99.3445L41.84 24.0632C42.5259 22.8805 43.3261 22.2892 44.2407 22.2892C45.3076 22.2892 46.1078 22.8805 46.6413 24.0632L87.9097 99.3445C88.2908 100.084 88.4813 100.675 88.4813 101.118C88.4813 101.784 88.2146 102.32 87.6811 102.726C87.1476 103.133 86.4236 103.336 85.5091 103.336H73.0485C71.2957 103.336 69.962 102.523 69.0474 100.897L63.6745 90.9183H24.6925L19.5482 100.897C18.7861 102.523 17.4524 103.336 15.5471 103.336H2.97224ZM54.9864 75.9507L44.2407 54.7744L33.6092 75.9507H54.9864ZM166.002 41.2481C174.614 41.2481 181.111 43.5025 185.493 48.0113C189.875 52.52 192.066 58.9505 192.066 67.3028V100.01C192.066 101.045 191.761 101.858 191.152 102.449C190.542 103.04 189.704 103.336 188.637 103.336H178.234C177.167 103.336 176.329 103.04 175.719 102.449C175.109 101.858 174.804 101.045 174.804 100.01V67.3028C174.804 63.0897 173.718 59.9853 171.546 57.9896C169.374 55.994 166.383 54.9961 162.573 54.9961C159.219 54.9961 156.399 56.1972 154.113 58.5994C151.827 61.0017 150.645 64.6049 150.569 69.4094V100.01C150.569 101.045 150.264 101.858 149.655 102.449C149.045 103.04 148.207 103.336 147.14 103.336H136.737C135.67 103.336 134.832 103.04 134.222 102.449C133.612 101.858 133.307 101.045 133.307 100.01V67.3028C133.307 63.0897 132.24 59.9853 130.107 57.9896C127.973 55.994 125 54.9961 121.19 54.9961C117.608 54.9961 114.693 56.2711 112.445 58.8212C110.196 61.3712 109.072 65.4549 109.072 71.0724L108.958 100.01C108.958 102.227 107.815 103.336 105.528 103.336H95.3542C94.2872 103.336 93.4489 103.04 92.8392 102.449C92.2295 101.858 91.9247 101.045 91.9247 100.01V45.683C91.9247 44.6482 92.2295 43.8351 92.8392 43.2438C93.4489 42.6525 94.2872 42.3569 95.3542 42.3569H105.528C106.595 42.3569 107.434 42.6525 108.043 43.2438C108.653 43.8351 108.958 44.6482 108.958 45.683V47.9004C111.168 45.9786 113.835 44.3895 116.96 43.133C120.085 41.8764 122.943 41.2481 125.534 41.2481C134.374 41.2481 141.119 44.0199 145.768 49.5635C148.131 46.9025 151.065 44.8515 154.57 43.4101C158.076 41.9688 161.887 41.2481 166.002 41.2481ZM216.43 42.3569C217.497 42.3569 218.335 42.6525 218.945 43.2438C219.554 43.8351 219.859 44.6482 219.859 45.683V48.4548C221.383 46.4591 223.936 44.7221 227.518 43.2438C231.1 41.7655 234.911 41.0264 238.95 41.0264C245.276 41.0264 250.839 42.4123 255.64 45.1841C260.442 47.9558 264.138 51.7809 266.729 56.6592C269.244 61.5375 270.502 66.9332 270.502 72.8463C270.502 78.8334 269.244 84.2291 266.729 89.0335C264.214 93.8379 260.594 97.6445 255.869 100.453C250.991 103.262 245.352 104.666 238.95 104.666C234.758 104.666 230.986 103.964 227.633 102.56C224.279 101.155 221.688 99.3075 219.859 97.0162V119.634C219.859 120.669 219.554 121.482 218.945 122.073C218.335 122.664 217.497 122.96 216.43 122.96H206.37C205.303 122.96 204.465 122.664 203.855 122.073C203.245 121.482 202.94 120.669 202.94 119.634V45.683C202.94 44.6482 203.245 43.8351 203.855 43.2438C204.465 42.6525 205.303 42.3569 206.37 42.3569H216.43ZM219.173 72.8463C219.173 78.0204 220.755 82.1964 223.917 85.3748C227.08 88.5531 231.253 90.1422 236.435 90.1422C241.694 90.1422 245.885 88.5531 249.01 85.3748C252.135 82.1964 253.697 78.0204 253.697 72.8463C253.697 67.8202 252.097 63.6995 248.896 60.4842C245.695 57.269 241.541 55.6614 236.435 55.6614C231.1 55.6614 226.89 57.1951 223.803 60.2625C220.717 63.3299 219.173 67.5245 219.173 72.8463ZM310.516 41.2481C319.052 41.2481 325.32 43.4471 329.321 47.845C333.322 52.2429 335.323 58.7287 335.323 67.3028V100.01C335.323 101.045 335.018 101.858 334.408 102.449C333.799 103.04 332.96 103.336 331.893 103.336H321.376C320.309 103.336 319.471 103.04 318.861 102.449C318.251 101.858 317.947 101.045 317.947 100.01V67.3028C317.947 63.0897 316.861 59.9853 314.689 57.9896C312.517 55.994 309.525 54.9961 305.715 54.9961C302.209 54.9961 299.294 56.2896 296.969 58.8766C294.645 61.4636 293.559 65.5288 293.711 71.0724V100.01C293.711 101.045 293.407 101.858 292.797 102.449C292.187 103.04 291.349 103.336 290.282 103.336H280.108C279.041 103.336 278.202 103.04 277.593 102.449C276.983 101.858 276.678 101.045 276.678 100.01V22.7327C276.678 21.6979 276.983 20.8849 277.593 20.2935C278.202 19.7022 279.041 19.4066 280.108 19.4066H290.282C291.349 19.4066 292.187 19.7022 292.797 20.2935C293.407 20.8849 293.711 21.6979 293.711 22.7327V47.7895C295.769 45.7938 298.341 44.2047 301.428 43.0221C304.514 41.8395 307.544 41.2481 310.516 41.2481ZM349.398 103.336C348.331 103.336 347.492 103.04 346.883 102.449C346.273 101.858 345.968 101.045 345.968 100.01V45.7939C345.968 44.7591 346.273 43.946 346.883 43.3547C347.492 42.7634 348.331 42.4677 349.398 42.4677H359.686C360.753 42.4677 361.591 42.7634 362.201 43.3547C362.811 43.946 363.116 44.7591 363.116 45.7939V100.01C363.116 101.045 362.811 101.858 362.201 102.449C361.591 103.04 360.753 103.336 359.686 103.336H349.398Z" fill="black"></path>
  <path fill-rule="evenodd" clip-rule="evenodd" d="M495.377 103.654C490.141 103.654 485.017 102.529 480.005 100.278C474.993 98.0278 470.766 94.5359 467.325 89.8024C463.66 84.8361 461.827 78.318 461.827 70.2478C461.827 63.6519 463.304 57.8321 466.259 52.7882C469.214 47.7443 473.235 43.8451 478.322 41.0903C483.409 38.3356 489.094 36.9582 495.377 36.9582C500.913 36.9582 506.093 38.2192 510.918 40.7411C515.743 43.2631 519.689 46.8907 522.757 51.6242C524.776 54.7282 526.085 57.7545 526.684 60.7032C527.282 63.6519 527.582 67.105 527.582 71.0625C527.582 72.6921 527.17 74.05 526.347 75.1364C525.524 76.2228 524.365 76.766 522.869 76.766H478.546C479.369 80.8011 481.426 83.7498 484.718 85.6121C488.009 87.4745 491.562 88.4057 495.377 88.4057C498.445 88.4057 501.063 87.9401 503.232 87.0089C505.401 86.0777 507.346 84.7586 509.067 83.0514C510.039 82.1978 510.937 81.771 511.76 81.771C512.433 81.771 513.107 82.0038 513.78 82.4694L521.073 86.8925C522.27 87.5909 522.869 88.4445 522.869 89.4532C522.869 90.074 522.57 90.8112 521.971 91.6648C515.089 99.6574 506.224 103.654 495.377 103.654ZM495.265 52.2062C490.702 52.2062 486.943 53.3702 483.988 55.6981C481.033 58.0261 479.369 60.936 478.995 64.4279H509.852C509.628 62.3328 508.88 60.354 507.608 58.4917C506.337 56.6293 504.653 55.1162 502.559 53.9522C500.464 52.7882 498.033 52.2062 495.265 52.2062ZM567.113 103.654C561.877 103.654 556.753 102.529 551.741 100.278C546.729 98.0278 542.502 94.5359 539.061 89.8024C535.395 84.8361 533.563 78.318 533.563 70.2478C533.563 63.6519 535.04 57.8321 537.995 52.7882C540.95 47.7443 544.971 43.8451 550.057 41.0903C555.144 38.3356 560.829 36.9582 567.113 36.9582C572.649 36.9582 577.829 38.2192 582.654 40.7411C587.479 43.2631 591.425 46.8907 594.492 51.6242C596.512 54.7282 597.821 57.7545 598.42 60.7032C599.018 63.6519 599.317 67.105 599.317 71.0625C599.317 72.6921 598.906 74.05 598.083 75.1364C597.26 76.2228 596.101 76.766 594.605 76.766H550.282C551.105 80.8011 553.162 83.7498 556.453 85.6121C559.745 87.4745 563.298 88.4057 567.113 88.4057C570.18 88.4057 572.798 87.9401 574.968 87.0089C577.137 86.0777 579.082 84.7586 580.803 83.0514C581.775 82.1978 582.673 81.771 583.496 81.771C584.169 81.771 584.842 82.0038 585.516 82.4694L592.809 86.8925C594.006 87.5909 594.605 88.4445 594.605 89.4532C594.605 90.074 594.305 90.8112 593.707 91.6648C586.825 99.6574 577.96 103.654 567.113 103.654ZM567.001 52.2062C562.438 52.2062 558.679 53.3702 555.724 55.6981C552.769 58.0261 551.105 60.936 550.731 64.4279H581.588C581.364 62.3328 580.616 60.354 579.344 58.4917C578.072 56.6293 576.389 55.1162 574.295 53.9522C572.2 52.7882 569.769 52.2062 567.001 52.2062Z" fill="black"></path>
</svg>
